<?xml version="1.0" standalone="no"?>
<!DOCTYPE svg PUBLIC "-//W3C//DTD SVG 20010904//EN"
 "http://www.w3.org/TR/2001/REC-SVG-20010904/DTD/svg10.dtd">
<svg version="1.0" xmlns="http://www.w3.org/2000/svg"
 width="1440.000000pt" height="2560.000000pt" viewBox="0 0 1440.000000 2560.000000"
 preserveAspectRatio="xMidYMid meet">

<g transform="translate(0.000000,2560.000000) scale(0.100000,-0.100000)"
fill="#000000" stroke="none">
<path d="M0 12800 l0 -12800 7200 0 7200 0 0 12800 0 12800 -7200 0 -7200 0 0
-12800z m12600 12610 c0 -20 19 -30 56 -30 l24 0 0 -210 0 -210 -150 0 -150 0
0 209 0 210 38 3 c29 2 38 7 40 25 3 19 10 22 55 25 69 4 87 -1 87 -22z
m-1320 -230 c0 -163 -1 -170 -20 -170 -19 0 -20 7 -20 145 0 80 -2 145 -5 145
-3 0 -22 -7 -42 -15 -44 -19 -43 -19 -43 3 0 13 17 24 58 39 31 12 60 22 65
22 4 1 7 -75 7 -169z m292 159 c32 -17 48 -71 48 -159 0 -127 -27 -170 -105
-170 -78 0 -105 43 -105 170 0 86 16 141 47 159 24 14 89 14 115 0z m270 0
c32 -17 48 -71 48 -159 0 -127 -27 -170 -105 -170 -78 0 -105 43 -105 170 0
86 16 141 47 159 24 14 89 14 115 0z m220 -6 c27 -24 25 -97 -4 -117 -29 -21
-67 -20 -90 1 -23 21 -24 89 -1 115 20 22 70 23 95 1z m1060 6 c32 -17 48 -71
48 -159 0 -127 -27 -170 -105 -170 -78 0 -105 43 -105 170 0 86 16 141 47 159
24 14 89 14 115 0z m328 4 c0 -5 -32 -81 -72 -170 -56 -127 -76 -163 -91 -163
-24 0 -21 8 54 167 32 69 59 129 59 134 0 5 -40 9 -90 9 -73 0 -90 3 -90 15 0
12 19 15 115 15 63 0 115 -3 115 -7z m332 -4 c32 -17 48 -71 48 -159 0 -127
-27 -170 -105 -170 -78 0 -105 43 -105 170 0 86 16 141 47 159 24 14 89 14
115 0z m270 0 c32 -17 48 -71 48 -159 0 -127 -27 -170 -105 -170 -78 0 -105
43 -105 170 0 86 16 141 47 159 24 14 89 14 115 0z m-3152 -194 l0 -185 -35 0
-35 0 0 152 0 152 32 33 c18 18 33 33 35 33 2 0 3 -83 3 -185z m1281 148 c-5
-10 -41 -70 -81 -133 -63 -102 -89 -132 -91 -107 -1 17 155 257 168 257 10 0
11 -5 4 -17z m1366 -34 c16 -16 5 -39 -18 -39 -12 0 -19 7 -19 18 0 31 17 41
37 21z m-2747 -164 l0 -135 -35 0 -35 0 0 102 c0 101 0 102 32 135 18 18 33
33 35 33 2 0 3 -61 3 -135z m1430 45 c44 -44 15 -130 -44 -130 -51 0 -71 21
-71 75 0 35 5 50 19 61 28 20 73 17 96 -6z m-1520 -90 l0 -90 -35 0 -35 0 0
57 c0 51 4 61 32 90 18 18 33 33 35 33 2 0 3 -40 3 -90z m2837 -1 c16 -16 5
-39 -18 -39 -12 0 -19 7 -19 18 0 31 17 41 37 21z m-2937 -49 l0 -40 -42 0
-42 0 39 40 c21 22 40 40 42 40 2 0 3 -18 3 -40z m3092 -917 c40 -36 8 -113
-47 -113 -54 0 -85 71 -48 112 20 22 70 23 95 1z m-12588 -125 c19 -51 51
-133 69 -182 19 -49 36 -85 39 -80 3 5 34 87 69 182 l64 172 57 0 58 0 0 -240
0 -240 -47 0 -46 0 6 182 c4 100 5 179 3 177 -2 -2 -34 -84 -71 -182 l-68
-178 -31 3 c-30 3 -32 7 -98 178 l-67 175 -1 -177 0 -178 -40 0 -40 0 0 240 0
240 54 0 54 0 36 -92z m11426 47 l0 -35 -305 0 -305 0 0 28 c0 16 3 32 7 35 3
4 141 7 305 7 l298 0 0 -35z m-10748 -91 c39 -20 68 -82 68 -144 l0 -50 -116
0 c-115 0 -115 0 -109 -22 18 -62 91 -85 152 -49 31 19 31 19 49 0 17 -18 16
-20 -6 -44 -29 -31 -90 -48 -139 -40 -90 15 -141 81 -141 181 0 150 119 232
242 168z m360 -2 c41 -24 48 -47 52 -182 2 -69 7 -133 11 -142 6 -16 1 -18
-39 -18 -36 0 -46 4 -46 16 0 15 -2 15 -23 1 -85 -55 -197 -3 -197 92 0 64 71
111 168 111 39 0 42 2 42 28 0 38 -17 52 -62 52 -27 0 -41 -6 -50 -20 -9 -14
-24 -20 -50 -20 -42 0 -47 12 -22 48 40 58 146 74 216 34z m360 1 c26 -12 58
-59 58 -83 0 -5 -17 -10 -38 -10 -31 0 -41 5 -50 24 -11 25 -43 36 -82 26 -19
-5 -25 -12 -25 -34 0 -33 9 -39 89 -61 73 -20 106 -51 106 -101 0 -77 -97
-129 -192 -103 -48 12 -98 58 -98 88 0 32 62 30 83 -3 31 -47 127 -40 127 9 0
30 -14 40 -87 60 -79 22 -113 52 -113 99 0 92 122 140 222 89z m682 21 c10 -4
16 -18 16 -40 0 -30 -3 -34 -26 -34 -28 0 -65 -16 -76 -34 -4 -6 -8 -66 -8
-133 l0 -123 -40 0 -40 0 0 180 0 180 40 0 c28 0 40 -4 40 -14 0 -11 8 -10 37
5 43 22 37 21 57 13z m298 -20 c39 -20 68 -82 68 -144 l0 -50 -116 0 c-115 0
-115 0 -109 -22 18 -62 91 -85 152 -49 31 19 31 19 49 0 17 -18 16 -20 -6 -44
-29 -31 -90 -48 -139 -40 -90 15 -141 81 -141 181 0 150 119 232 242 168z
m-2832 -116 c0 -143 8 -168 57 -168 27 0 64 17 75 34 4 6 8 68 8 139 l0 127
40 0 40 0 0 -180 0 -180 -40 0 c-29 0 -40 4 -40 15 0 14 -3 14 -22 1 -34 -21
-88 -27 -128 -13 -58 20 -70 58 -70 220 l0 137 40 0 40 0 0 -132z m2060 0 c0
-143 8 -168 57 -168 27 0 64 17 75 34 4 6 8 68 8 139 l0 127 40 0 40 0 0 -180
0 -180 -40 0 c-29 0 -40 4 -40 15 0 14 -3 14 -22 1 -34 -21 -88 -27 -128 -13
-58 20 -70 58 -70 220 l0 137 40 0 40 0 0 -132z m10980 82 c11 -11 20 -31 20
-45 0 -14 -9 -34 -20 -45 -11 -11 -31 -20 -45 -20 -14 0 -34 9 -45 20 -11 11
-20 31 -20 45 0 14 9 34 20 45 11 11 31 20 45 20 14 0 34 -9 45 -20z m-1362
-47 l3 -33 -205 0 -206 0 0 28 c0 16 3 32 7 36 4 3 95 5 202 4 l196 -3 3 -32z
m-208 -168 l0 -36 -97 3 -98 3 -3 33 -3 32 100 0 101 0 0 -35z m1570 15 c24
-24 26 -67 3 -92 -20 -22 -70 -23 -95 -1 -40 36 -8 113 47 113 14 0 34 -9 45
-20z m-9445 -1910 l160 -160 -658 -658 -657 -657 -162 162 -163 163 67 67 68
68 55 -55 55 -55 42 43 43 42 -55 55 -55 55 53 52 52 53 95 -95 95 -95 42 43
43 42 -95 95 -94 95 54 55 54 55 56 -55 56 -55 42 43 42 43 -55 54 -55 54 52
53 52 53 96 -95 95 -95 43 42 42 43 -95 95 -95 96 55 54 55 54 55 -54 55 -55
42 43 43 42 -55 55 -55 55 53 52 52 53 95 -95 95 -95 42 43 43 42 -95 95 -95
95 65 65 c35 36 67 65 70 65 3 0 77 -72 165 -160z m6463 43 l-3 -76 -55 -13
c-70 -16 -139 -46 -195 -84 -24 -16 -48 -30 -52 -30 -5 0 -31 25 -57 55 l-48
56 24 19 c59 50 219 120 319 139 74 15 70 19 67 -66z m241 62 c267 -56 481
-249 574 -519 29 -86 31 -100 32 -236 0 -167 -16 -235 -88 -375 -58 -113 -199
-254 -313 -312 -76 -40 -194 -78 -259 -85 l-30 -3 0 74 0 73 73 19 c361 91
566 487 430 829 -52 131 -147 244 -267 314 -56 33 -162 72 -211 78 -24 3 -25
6 -28 81 -2 45 1 77 7 77 5 0 41 -7 80 -15z m-711 -328 l52 -52 -21 -30 c-40
-59 -71 -128 -89 -199 l-18 -71 -76 -3 -77 -3 6 38 c11 64 46 175 72 228 27
55 85 145 93 145 3 0 29 -24 58 -53z m584 -249 l3 -203 167 -100 c92 -55 169
-103 173 -107 7 -6 -43 -88 -53 -88 -4 0 -95 53 -204 118 l-197 117 -1 233 0
232 55 0 55 0 2 -202z m-642 -334 c18 -70 48 -137 89 -200 l21 -30 -55 -54
-54 -53 -20 24 c-56 67 -119 221 -146 357 l-7 33 77 -3 77 -3 18 -71z m379
-435 c30 -11 76 -25 103 -30 l48 -11 0 -74 c0 -86 1 -85 -104 -58 -105 27
-198 73 -301 146 -6 4 13 30 43 61 l54 55 51 -34 c29 -19 76 -43 106 -55z
m-6419 -583 l0 -64 30 15 c37 18 84 9 105 -20 11 -16 15 -49 15 -124 0 -96 -1
-103 -20 -103 -19 0 -20 7 -20 98 0 105 -7 122 -48 122 -56 0 -62 -12 -62
-120 0 -100 0 -100 -25 -100 l-25 0 0 180 0 180 25 0 c24 0 25 -2 25 -64z
m-1210 -106 l0 -149 82 -3 c70 -3 83 -6 86 -20 3 -16 -7 -18 -102 -18 l-106 0
0 170 c0 163 1 170 20 170 19 0 20 -7 20 -150z m7580 130 c0 -17 -7 -20 -50
-20 l-50 0 0 -150 0 -150 -25 0 -25 0 0 150 c0 113 -3 150 -12 151 -7 0 -31 1
-53 2 -29 2 -41 7 -43 20 -3 15 8 17 127 17 124 0 131 -1 131 -20z m100 0 c0
-23 -35 -28 -43 -6 -7 18 1 26 25 26 11 0 18 -7 18 -20z m-6620 -40 c0 -25 4
-30 25 -30 16 0 25 -6 25 -15 0 -9 -9 -15 -25 -15 -25 0 -25 -1 -25 -90 0 -87
1 -90 25 -96 38 -10 32 -34 -10 -34 -47 0 -55 20 -55 129 0 90 0 91 -25 91
-16 0 -25 6 -25 15 0 9 9 15 25 15 21 0 25 5 25 30 0 23 4 30 20 30 16 0 20
-7 20 -30z m-706 -30 c31 -11 52 -44 61 -92 l7 -38 -86 0 c-82 0 -86 -1 -86
-22 0 -30 38 -68 70 -68 14 0 36 7 49 16 17 12 25 14 34 5 20 -20 -30 -51 -84
-51 -58 0 -94 26 -110 80 -32 107 51 206 145 170z m289 -21 c14 -17 17 -41 17
-125 0 -97 -1 -104 -20 -104 -19 0 -20 7 -20 98 0 105 -7 122 -48 122 -56 0
-62 -12 -62 -120 0 -100 0 -100 -25 -100 l-25 0 0 125 c0 117 1 125 19 125 11
0 21 -5 23 -11 2 -6 14 -4 33 6 37 19 84 13 108 -16z m227 16 c17 -9 30 -11
30 -5 0 5 9 10 21 10 20 0 21 -3 17 -144 -3 -136 -4 -146 -27 -170 -30 -32
-78 -42 -125 -26 -41 13 -49 22 -40 44 5 14 8 14 30 -1 29 -18 79 -20 100 -2
8 6 14 25 14 42 0 24 -3 28 -12 19 -7 -7 -31 -12 -54 -12 -34 0 -47 5 -67 29
-68 81 -25 229 66 231 10 0 31 -7 47 -15z m7060 -10 c15 -14 19 -14 29 -1 18
22 68 30 101 16 38 -16 50 -54 50 -161 0 -81 -2 -89 -19 -89 -17 0 -19 10 -23
100 -3 109 -9 120 -60 120 -44 0 -58 -32 -58 -132 0 -81 -2 -88 -20 -88 -19 0
-20 7 -20 91 0 108 -9 129 -53 129 -51 0 -57 -13 -57 -122 0 -98 0 -98 -25
-98 l-25 0 0 125 c0 117 1 125 19 125 11 0 21 -5 23 -11 2 -6 14 -4 33 6 34
18 79 13 105 -10z m384 15 c31 -11 52 -44 61 -92 l7 -38 -86 0 c-82 0 -86 -1
-86 -22 0 -30 38 -68 70 -68 14 0 36 7 49 16 17 12 25 14 34 5 20 -20 -30 -51
-84 -51 -58 0 -94 26 -110 80 -32 107 51 206 145 170z m-634 -125 c0 -118 -1
-125 -20 -125 -19 0 -20 7 -20 125 0 118 1 125 20 125 19 0 20 -7 20 -125z
m-6931 -1736 c44 -65 81 -119 81 -121 0 -3 -23 1 -52 8 -29 8 -84 14 -123 14
-39 0 -94 -6 -123 -14 -29 -7 -52 -11 -52 -9 0 14 175 252 180 246 4 -4 44
-60 89 -124z m7811 -24 c0 -70 -1 -75 -21 -75 -36 0 -96 -40 -118 -80 -21 -37
-21 -47 -21 -536 0 -564 0 -557 -76 -605 l-39 -24 -430 0 c-413 0 -431 1 -465
20 -21 12 -44 39 -57 65 -23 44 -23 46 -23 543 0 490 0 500 -21 537 -21 37
-81 80 -113 80 -13 0 -16 13 -16 75 l0 75 700 0 700 0 0 -75z m-8298 -239
c-57 -65 -97 -131 -122 -204 l-26 -72 -63 136 c-34 75 -59 139 -56 143 5 5
171 23 274 30 23 1 23 1 -7 -33z m951 18 c54 -4 100 -11 103 -15 3 -6 -108
-262 -121 -277 -1 -1 -12 27 -24 64 -23 70 -68 147 -122 209 l-34 38 50 -6
c28 -4 94 -10 148 -13z m-391 -52 c79 -38 149 -110 186 -190 24 -50 27 -69 27
-157 0 -88 -3 -107 -27 -157 -37 -80 -107 -152 -187 -191 -61 -30 -73 -32
-166 -32 -88 0 -107 3 -157 27 -80 37 -152 107 -191 187 -30 61 -32 73 -32
166 0 87 3 107 27 157 47 100 137 180 241 214 26 9 74 13 128 11 74 -3 96 -8
151 -35z m-682 -521 c23 -69 68 -145 121 -206 l34 -38 -50 6 c-28 3 -94 9
-148 13 -54 4 -100 10 -102 14 -4 7 117 282 122 277 0 -1 11 -31 23 -66z
m1119 -69 c33 -74 59 -137 56 -141 -2 -5 -48 -11 -102 -15 -54 -3 -120 -9
-147 -13 l-50 -6 48 58 c53 66 98 149 116 214 6 24 13 41 14 40 2 -2 31 -64
65 -137z m-709 -293 c53 -13 158 -10 223 5 32 7 57 11 55 7 -15 -34 -173 -250
-179 -244 -4 4 -46 63 -93 131 -68 97 -82 122 -64 116 13 -4 39 -11 58 -15z
m7140 -749 c0 -173 -1 -180 -20 -180 -19 0 -20 7 -20 180 0 173 1 180 20 180
19 0 20 -7 20 -180z m-8120 140 c0 -17 -7 -20 -50 -20 l-50 0 0 -150 0 -150
-25 0 -25 0 0 150 c0 136 -2 150 -17 151 -10 1 -34 2 -53 3 -24 1 -36 6 -38
19 -3 15 8 17 127 17 124 0 131 -1 131 -20z m7569 -107 c24 -71 47 -132 51
-136 4 -5 26 47 49 115 48 144 52 151 78 146 19 -3 16 -14 -42 -168 -82 -222
-83 -222 -160 -13 -31 87 -60 164 -62 171 -3 7 4 12 19 12 21 0 27 -12 67
-127z m-5879 67 c0 -25 4 -30 25 -30 16 0 25 -6 25 -15 0 -9 -9 -15 -25 -15
-25 0 -25 -1 -25 -90 0 -87 1 -90 25 -96 38 -10 32 -34 -10 -34 -47 0 -55 20
-55 129 0 90 0 91 -25 91 -16 0 -25 6 -25 15 0 9 9 15 25 15 21 0 25 5 25 30
0 23 4 30 20 30 16 0 20 -7 20 -30z m-1516 -30 c31 -11 52 -44 61 -92 l7 -38
-86 0 c-82 0 -86 -1 -86 -22 0 -30 38 -68 70 -68 14 0 36 7 49 16 17 12 25 14
34 5 20 -20 -30 -51 -84 -51 -58 0 -94 26 -110 80 -32 107 51 206 145 170z
m286 -15 c15 -14 19 -14 29 -1 18 22 68 30 101 16 38 -16 50 -54 50 -161 0
-81 -2 -89 -19 -89 -17 0 -19 10 -23 100 -3 109 -9 120 -60 120 -44 0 -58 -32
-58 -132 0 -81 -2 -88 -20 -88 -19 0 -20 7 -20 91 0 108 -9 129 -53 129 -51 0
-57 -13 -57 -122 0 -98 0 -98 -25 -98 l-25 0 0 125 c0 117 1 125 19 125 11 0
21 -5 23 -11 2 -6 14 -4 33 6 34 18 79 13 105 -10z m426 -9 c43 -48 39 -153
-8 -203 -23 -24 -79 -31 -108 -13 -13 8 -16 0 -20 -48 -4 -49 -8 -57 -25 -57
-19 0 -20 8 -23 173 -2 165 -2 172 17 172 11 0 21 -5 23 -11 2 -6 14 -4 33 6
38 20 83 12 111 -19z m228 24 c31 -11 52 -44 61 -92 l7 -38 -86 0 c-82 0 -86
-1 -86 -22 0 -30 38 -68 70 -68 14 0 36 7 49 16 17 12 25 14 34 5 20 -20 -30
-51 -84 -51 -58 0 -94 26 -110 80 -32 107 51 206 145 170z m226 -8 c0 -11 -13
-23 -35 -31 l-35 -12 0 -100 c0 -99 0 -99 -25 -99 l-25 0 0 125 c0 117 1 125
19 125 11 0 23 -5 26 -10 4 -7 14 -5 28 5 29 20 47 19 47 -3z m204 -12 c17
-17 21 -36 24 -125 4 -100 3 -105 -16 -105 -11 0 -22 5 -24 11 -3 9 -9 9 -25
0 -12 -6 -38 -11 -57 -11 -47 0 -76 29 -76 74 0 48 37 76 101 76 44 0 49 2 49
23 0 32 -18 47 -57 47 -22 0 -36 -6 -43 -20 -6 -11 -20 -20 -30 -20 -23 0 -24
4 -9 31 26 49 122 60 163 19z m626 12 c0 -11 -13 -23 -35 -31 l-35 -12 0 -100
c0 -99 0 -99 -25 -99 l-25 0 0 125 c0 117 1 125 19 125 11 0 23 -5 26 -10 4
-7 14 -5 28 5 29 20 47 19 47 -3z m184 8 c31 -11 52 -44 61 -92 l7 -38 -86 0
c-82 0 -86 -1 -86 -22 0 -30 38 -68 70 -68 14 0 36 7 49 16 17 12 25 14 34 5
20 -20 -30 -51 -84 -51 -58 0 -94 26 -110 80 -32 107 51 206 145 170z m5594
-1 c49 -17 75 -68 70 -136 -4 -48 -10 -61 -37 -85 -40 -35 -104 -39 -144 -7
-52 40 -60 138 -15 194 33 43 72 53 126 34z m682 -14 c15 -14 19 -14 29 -1 18
22 68 30 101 16 38 -16 50 -54 50 -161 0 -81 -2 -89 -19 -89 -17 0 -19 10 -23
100 -3 109 -9 120 -60 120 -44 0 -58 -32 -58 -132 0 -81 -2 -88 -20 -88 -19 0
-20 7 -20 91 0 108 -9 129 -53 129 -51 0 -57 -13 -57 -122 0 -98 0 -98 -25
-98 l-25 0 0 125 c0 117 1 125 19 125 11 0 21 -5 23 -11 2 -6 14 -4 33 6 34
18 79 13 105 -10z m384 15 c31 -11 52 -44 61 -92 l7 -38 -86 0 c-82 0 -86 -1
-86 -22 0 -30 38 -68 70 -68 14 0 36 7 49 16 17 12 25 14 34 5 20 -20 -30 -51
-84 -51 -58 0 -94 26 -110 80 -32 107 51 206 145 170z m-7184 -82 c0 -47 6
-94 13 -108 15 -31 50 -37 83 -16 23 16 24 22 24 111 0 88 1 95 20 95 19 0 20
-7 20 -125 0 -118 -1 -125 -20 -125 -11 0 -20 5 -20 10 0 7 -6 7 -19 0 -34
-18 -96 -12 -117 11 -16 17 -20 40 -22 125 -4 100 -3 104 17 104 20 0 21 -6
21 -82z m6400 0 c0 -47 6 -94 13 -108 15 -31 50 -37 83 -16 23 16 24 22 24
111 0 88 1 95 20 95 19 0 20 -7 20 -125 0 -118 -1 -125 -20 -125 -11 0 -20 5
-20 10 0 7 -6 7 -19 0 -34 -18 -96 -12 -117 11 -16 17 -20 40 -22 125 -4 100
-3 104 17 104 20 0 21 -6 21 -82z m413 -1923 c185 -143 335 -263 334 -267 -2
-8 -684 -538 -692 -538 -8 0 -690 530 -692 538 -4 14 689 542 702 534 7 -4
164 -124 348 -267z m-7447 178 c69 -23 155 -111 178 -181 22 -64 22 -152 1
-211 -8 -24 -15 -45 -15 -47 0 -2 48 -4 108 -4 125 0 179 -19 211 -71 23 -38
181 -667 181 -720 0 -45 -33 -96 -80 -123 -34 -21 -47 -21 -695 -21 -648 0
-661 0 -695 21 -47 27 -80 78 -80 123 0 53 158 682 181 720 32 52 86 71 212
71 59 0 107 2 107 4 0 2 -7 23 -15 47 -21 59 -21 147 1 211 22 68 109 158 174
181 60 21 165 21 226 0z m6798 -963 c152 -118 283 -215 291 -215 8 0 140 98
294 218 l281 219 60 -48 c49 -39 58 -50 48 -60 -7 -7 -164 -130 -347 -273
-199 -155 -339 -257 -345 -252 -265 200 -686 535 -679 541 28 27 109 89 114
87 4 -1 131 -99 283 -217z m-6514 -884 l0 -64 30 15 c37 18 84 9 105 -20 11
-16 15 -49 15 -124 0 -96 -1 -103 -20 -103 -19 0 -20 7 -20 98 0 105 -7 122
-48 122 -56 0 -62 -12 -62 -120 0 -100 0 -100 -25 -100 l-25 0 0 180 0 180 25
0 c24 0 25 -2 25 -64z m-1055 -73 c15 -65 29 -125 32 -133 3 -8 21 44 42 115
30 108 40 130 56 133 18 2 25 -12 57 -130 19 -73 38 -126 41 -118 3 8 17 68
32 133 23 100 29 117 46 117 24 0 25 2 -19 -180 -33 -134 -40 -155 -58 -158
-19 -3 -25 10 -54 115 -18 65 -36 124 -40 131 -3 7 -24 -46 -45 -118 -34 -117
-40 -131 -58 -128 -18 3 -26 24 -58 158 -45 183 -44 180 -20 180 17 0 23 -17
46 -117z m665 97 c0 -23 -35 -28 -43 -6 -7 18 1 26 25 26 11 0 18 -7 18 -20z
m6938 -142 c34 -90 62 -166 62 -170 0 -5 -9 -8 -19 -8 -14 0 -24 13 -37 45
l-17 45 -71 0 -72 0 -15 -42 c-11 -30 -22 -44 -37 -46 -12 -2 -22 -1 -22 1 0
6 120 318 126 328 3 5 13 9 23 9 13 0 32 -38 79 -162z m-6278 102 c0 -25 4
-30 25 -30 16 0 25 -6 25 -15 0 -9 -9 -15 -25 -15 -25 0 -25 -1 -25 -90 0 -87
1 -90 25 -96 38 -10 32 -34 -10 -34 -47 0 -55 20 -55 129 0 90 0 91 -25 91
-16 0 -25 6 -25 15 0 9 9 15 25 15 21 0 25 5 25 30 0 23 4 30 20 30 16 0 20
-7 20 -30z m-816 -30 c31 -11 52 -44 61 -92 l7 -38 -86 0 c-82 0 -86 -1 -86
-22 0 -30 38 -68 70 -68 14 0 36 7 49 16 17 12 25 14 34 5 20 -20 -30 -51 -84
-51 -58 0 -94 26 -110 80 -32 107 51 206 145 170z m366 -5 c17 -9 30 -11 30
-5 0 5 9 10 21 10 20 0 21 -3 17 -144 -3 -136 -4 -146 -27 -170 -30 -32 -78
-42 -125 -26 -41 13 -49 22 -40 44 5 14 8 14 30 -1 29 -18 79 -20 100 -2 8 6
14 25 14 42 0 24 -3 28 -12 19 -7 -7 -31 -12 -54 -12 -34 0 -47 5 -67 29 -68
81 -25 229 66 231 10 0 31 -7 47 -15z m6950 -3 c0 -11 -13 -23 -35 -31 l-35
-12 0 -100 c0 -99 0 -99 -25 -99 l-25 0 0 125 c0 117 1 125 19 125 11 0 23 -5
26 -10 4 -7 14 -5 28 5 29 20 47 19 47 -3z m184 8 c31 -11 52 -44 61 -92 l7
-38 -86 0 c-82 0 -86 -1 -86 -22 0 -30 38 -68 70 -68 14 0 36 7 49 16 17 12
25 14 34 5 20 -20 -30 -51 -84 -51 -58 0 -94 26 -110 80 -32 107 51 206 145
170z m280 -20 c17 -17 21 -36 24 -125 4 -100 3 -105 -16 -105 -11 0 -22 5 -24
11 -3 9 -9 9 -25 0 -12 -6 -38 -11 -57 -11 -47 0 -76 29 -76 74 0 48 37 76
101 76 44 0 49 2 49 23 0 32 -18 47 -57 47 -22 0 -36 -6 -43 -20 -6 -11 -20
-20 -30 -20 -23 0 -24 4 -9 31 26 49 122 60 163 19z m-7624 -105 c0 -118 -1
-125 -20 -125 -19 0 -20 7 -20 125 0 118 1 125 20 125 19 0 20 -7 20 -125z
m7310 -1536 l52 -11 39 -82 c79 -165 114 -390 98 -633 -5 -65 -25 -203 -45
-307 -52 -260 -67 -276 -259 -276 -192 0 -207 16 -259 276 -20 104 -41 243
-45 309 -16 239 19 467 98 632 38 79 41 82 83 91 60 14 177 14 238 1z m-414
-111 c-60 -136 -87 -294 -88 -503 0 -218 38 -459 92 -582 10 -24 15 -43 11
-43 -18 0 -103 78 -143 130 -53 71 -131 234 -157 330 -72 261 -36 460 109 593
51 48 170 126 192 127 4 0 -4 -24 -16 -52z m650 17 c202 -113 294 -296 264
-523 -16 -126 -45 -224 -99 -337 -56 -116 -112 -195 -177 -247 -56 -45 -70
-48 -50 -9 40 76 81 281 96 470 16 217 -19 477 -84 624 -14 32 -22 57 -19 57
3 0 35 -16 69 -35z m-7085 3 c25 -14 46 -37 59 -63 19 -40 20 -62 20 -690 0
-628 -1 -650 -20 -690 -13 -26 -34 -49 -59 -63 -38 -22 -45 -22 -466 -22 -421
0 -428 0 -466 22 -25 14 -46 37 -59 63 -19 40 -20 62 -20 690 0 627 1 650 20
690 12 25 34 49 57 63 37 21 45 22 467 22 422 0 429 0 467 -22z m6967 -1402
c-3 -95 -6 -106 -32 -141 -41 -53 -77 -65 -201 -65 -124 0 -160 12 -201 65
-26 35 -29 46 -32 141 l-4 104 237 0 237 0 -4 -104z m-6788 -636 c0 -173 -1
-180 -20 -180 -19 0 -20 7 -20 180 0 173 1 180 20 180 19 0 20 -7 20 -180z
m-1120 141 c52 -27 74 -72 74 -151 0 -118 -56 -170 -184 -170 l-60 0 0 170 0
170 68 0 c47 0 78 -6 102 -19z m190 -1 c0 -23 -35 -28 -43 -6 -7 18 1 26 25
26 11 0 18 -7 18 -20z m390 0 c0 -23 -35 -28 -43 -6 -7 18 1 26 25 26 11 0 18
-7 18 -20z m6380 5 c37 -19 50 -43 50 -95 0 -68 -54 -100 -171 -100 -29 0 -29
0 -29 -65 0 -58 -2 -65 -20 -65 -19 0 -20 7 -20 170 l0 170 80 0 c53 0 91 -5
110 -15z m-6250 -45 c0 -25 4 -30 25 -30 16 0 25 -6 25 -15 0 -9 -9 -15 -25
-15 -25 0 -25 -1 -25 -90 0 -87 1 -90 25 -96 38 -10 32 -34 -10 -34 -47 0 -55
20 -55 129 0 90 0 91 -25 91 -16 0 -25 6 -25 15 0 9 9 15 25 15 21 0 25 5 25
30 0 23 4 30 20 30 16 0 20 -7 20 -30z m-310 -35 c17 -9 30 -11 30 -5 0 5 9
10 21 10 20 0 21 -3 17 -144 -3 -136 -4 -146 -27 -170 -30 -32 -78 -42 -125
-26 -41 13 -49 22 -40 44 5 14 8 14 30 -1 29 -18 79 -20 100 -2 8 6 14 25 14
42 0 24 -3 28 -12 19 -7 -7 -31 -12 -54 -12 -34 0 -47 5 -67 29 -68 81 -25
229 66 231 10 0 31 -7 47 -15z m584 -15 c17 -17 21 -36 24 -125 4 -100 3 -105
-16 -105 -11 0 -22 5 -24 11 -3 9 -9 9 -25 0 -12 -6 -38 -11 -57 -11 -47 0
-76 29 -76 74 0 48 37 76 101 76 44 0 49 2 49 23 0 32 -18 47 -57 47 -22 0
-36 -6 -43 -20 -6 -11 -20 -20 -30 -20 -23 0 -24 4 -9 31 26 49 122 60 163 19z
m6196 12 c0 -11 -13 -23 -35 -31 l-35 -12 0 -100 c0 -99 0 -99 -25 -99 l-25 0
0 125 c0 117 1 125 19 125 11 0 23 -5 26 -10 4 -7 14 -5 28 5 29 20 47 19 47
-3z m184 8 c31 -11 52 -44 61 -92 l7 -38 -86 0 c-82 0 -86 -1 -86 -22 0 -30
38 -68 70 -68 14 0 36 7 49 16 17 12 25 14 34 5 20 -20 -30 -51 -84 -51 -58 0
-94 26 -110 80 -32 107 51 206 145 170z m272 -21 c13 -13 24 -28 24 -36 0 -20
-38 -15 -50 7 -14 27 -75 28 -89 2 -14 -26 0 -41 54 -58 61 -18 85 -39 85 -75
0 -43 -34 -69 -93 -69 -40 0 -53 5 -78 29 -16 16 -29 34 -29 40 0 20 32 11 56
-14 39 -42 112 -27 102 22 -2 12 -22 24 -57 35 -87 28 -108 59 -75 106 33 47
106 52 150 11z m250 0 c13 -13 24 -28 24 -36 0 -20 -38 -15 -50 7 -14 27 -75
28 -89 2 -14 -26 0 -41 54 -58 61 -18 85 -39 85 -75 0 -43 -34 -69 -93 -69
-40 0 -53 5 -78 29 -16 16 -29 34 -29 40 0 20 32 11 56 -14 39 -42 112 -27
102 22 -2 12 -22 24 -57 35 -87 28 -108 59 -75 106 33 47 106 52 150 11z m464
13 c0 -11 -13 -23 -35 -31 l-35 -12 0 -100 c0 -99 0 -99 -25 -99 l-25 0 0 125
c0 117 1 125 19 125 11 0 23 -5 26 -10 4 -7 14 -5 28 5 29 20 47 19 47 -3z
m184 8 c31 -11 52 -44 61 -92 l7 -38 -86 0 c-82 0 -86 -1 -86 -22 0 -30 38
-68 70 -68 14 0 36 7 49 16 17 12 25 14 34 5 20 -20 -30 -51 -84 -51 -58 0
-94 26 -110 80 -32 107 51 206 145 170z m-8344 -125 c0 -118 -1 -125 -20 -125
-19 0 -20 7 -20 125 0 118 1 125 20 125 19 0 20 -7 20 -125z m390 0 c0 -118
-1 -125 -20 -125 -19 0 -20 7 -20 125 0 118 1 125 20 125 19 0 20 -7 20 -125z
m7430 43 c0 -47 6 -94 13 -108 15 -31 50 -37 83 -16 23 16 24 22 24 111 0 88
1 95 20 95 19 0 20 -7 20 -125 0 -118 -1 -125 -20 -125 -11 0 -20 5 -20 10 0
7 -6 7 -19 0 -34 -18 -96 -12 -117 11 -16 17 -20 40 -22 125 -4 100 -3 104 17
104 20 0 21 -6 21 -82z m-115 -1678 c135 -42 222 -96 325 -200 106 -105 158
-191 202 -330 19 -64 23 -96 23 -215 0 -161 -17 -231 -88 -370 -58 -113 -199
-254 -312 -312 -139 -71 -209 -88 -370 -88 -161 0 -231 17 -370 88 -113 58
-254 199 -312 312 -71 139 -88 209 -88 370 0 161 17 231 88 370 58 113 200
254 312 312 149 76 226 93 395 89 94 -3 142 -9 195 -26z m-7338 -70 c18 -10
41 -37 53 -59 19 -38 20 -58 20 -331 l0 -290 63 0 c72 0 116 -22 147 -72 18
-30 20 -51 20 -236 0 -206 4 -232 39 -259 26 -20 70 -15 96 12 l25 24 0 294 0
293 -59 -4 c-183 -13 -279 188 -153 321 20 20 42 37 49 37 24 0 14 14 -67 95
l-80 81 40 39 40 39 151 -149 c83 -83 160 -168 172 -190 22 -39 22 -48 22
-455 0 -395 -1 -417 -20 -454 -11 -22 -37 -54 -58 -70 -35 -28 -46 -31 -111
-31 -62 0 -78 4 -113 27 -24 16 -49 44 -62 70 -19 41 -21 61 -21 261 l0 217
-60 0 -60 0 0 -295 0 -295 -387 2 -388 3 0 645 c0 639 0 646 21 678 45 72 46
72 364 72 265 0 287 -1 317 -20z m323 -1960 c0 -173 -1 -180 -20 -180 -19 0
-20 7 -20 180 0 173 1 180 20 180 19 0 20 -7 20 -180z m7430 0 c0 -171 -1
-180 -19 -180 -11 0 -21 5 -23 11 -3 9 -9 9 -25 0 -41 -21 -89 -14 -117 19
-84 101 11 285 112 214 l22 -15 0 65 c0 64 1 66 25 66 l25 0 0 -180z m-1062
125 c28 -33 29 -65 2 -65 -11 0 -20 7 -20 15 0 43 -84 73 -122 43 -45 -37 -22
-78 60 -108 90 -34 124 -78 102 -134 -13 -34 -59 -56 -121 -56 -45 0 -55 4
-85 34 -19 19 -34 41 -34 50 0 27 34 18 52 -13 32 -58 139 -50 146 10 4 31
-17 50 -83 74 -96 35 -129 96 -82 150 42 50 142 50 185 0z m-6968 15 c0 -18
-7 -20 -85 -20 l-85 0 0 -55 0 -55 75 0 c68 0 75 -2 75 -20 0 -18 -7 -20 -75
-20 l-75 0 0 -75 c0 -68 -2 -75 -20 -75 -19 0 -20 7 -20 170 l0 170 105 0 c98
0 105 -1 105 -20z m444 -70 c31 -11 52 -44 61 -92 l7 -38 -86 0 c-82 0 -86 -1
-86 -22 0 -30 38 -68 70 -68 14 0 36 7 49 16 17 12 25 14 34 5 20 -20 -30 -51
-84 -51 -58 0 -94 26 -110 80 -32 107 51 206 145 170z m6788 -17 c10 -9 23
-34 29 -56 23 -88 -21 -177 -89 -177 -21 0 -44 5 -52 10 -13 8 -16 0 -20 -48
-4 -49 -8 -57 -25 -57 -19 0 -20 8 -23 173 -2 165 -2 172 17 172 11 0 21 -5
23 -11 2 -6 14 -4 33 6 34 18 79 13 107 -12z m232 17 c31 -11 52 -44 61 -92
l7 -38 -86 0 c-82 0 -86 -1 -86 -22 0 -30 38 -68 70 -68 14 0 36 7 49 16 17
12 25 14 34 5 20 -20 -30 -51 -84 -51 -58 0 -94 26 -110 80 -32 107 51 206
145 170z m250 0 c31 -11 52 -44 61 -92 l7 -38 -86 0 c-82 0 -86 -1 -86 -22 0
-30 38 -68 70 -68 14 0 36 7 49 16 17 12 25 14 34 5 20 -20 -30 -51 -84 -51
-58 0 -94 26 -110 80 -32 107 51 206 145 170z m-7634 -82 c0 -47 6 -94 13
-108 15 -31 50 -37 83 -16 23 16 24 22 24 111 0 88 1 95 20 95 19 0 20 -7 20
-125 0 -118 -1 -125 -20 -125 -11 0 -20 5 -20 10 0 7 -6 7 -19 0 -34 -18 -96
-12 -117 11 -16 17 -20 40 -22 125 -4 100 -3 104 17 104 20 0 21 -6 21 -82z
m7095 -1593 c87 -23 152 -62 226 -135 129 -127 178 -303 134 -475 l-16 -59
366 -366 c281 -281 365 -371 365 -390 0 -18 -32 -56 -118 -142 -97 -97 -123
-118 -147 -118 -25 0 -81 52 -395 365 l-366 366 -59 -16 c-176 -45 -377 18
-500 158 -50 57 -99 150 -114 217 -17 75 -13 191 10 264 l20 67 175 -167 175
-168 117 117 117 117 -168 168 -169 169 29 11 c83 34 224 41 318 17z m-6750
-365 l-155 -309 155 -3 155 -3 -268 -458 -267 -459 -3 346 -2 346 -115 0 -115
0 0 425 0 425 385 0 385 0 -155 -310z m-705 -1610 c0 -18 -7 -20 -86 -20 l-85
0 3 -52 3 -53 73 -3 c54 -2 72 -6 72 -17 0 -11 -18 -15 -72 -17 l-73 -3 -3
-57 -3 -57 88 -3 c74 -3 88 -6 91 -20 3 -16 -7 -18 -107 -18 l-111 0 0 170 0
170 105 0 c98 0 105 -1 105 -20z m7220 0 c0 -17 -7 -20 -50 -20 -58 0 -52 19
-50 -172 l1 -128 -25 0 -26 0 0 149 0 150 -52 3 c-41 2 -54 7 -56 21 -3 15 8
17 127 17 124 0 131 -1 131 -20z m-6987 -91 c14 -17 17 -41 17 -125 0 -97 -1
-104 -20 -104 -19 0 -20 7 -20 98 0 107 -7 122 -51 122 -49 0 -59 -21 -59
-126 0 -94 0 -94 -25 -94 l-25 0 0 125 c0 117 1 125 19 125 11 0 21 -5 23 -11
2 -6 14 -4 33 6 37 19 84 13 108 -16z m231 21 c31 -11 52 -44 61 -92 l7 -38
-86 0 c-82 0 -86 -1 -86 -22 0 -30 38 -68 70 -68 14 0 36 7 49 16 17 12 25 14
34 5 20 -20 -30 -51 -84 -51 -58 0 -94 26 -110 80 -32 107 51 206 145 170z
m226 -8 c0 -11 -13 -23 -35 -31 l-35 -12 0 -100 c0 -99 0 -99 -25 -99 l-25 0
0 125 c0 117 1 125 19 125 11 0 23 -5 26 -10 4 -7 14 -5 28 5 29 20 47 19 47
-3z m180 3 c17 -9 30 -11 30 -5 0 5 9 10 21 10 20 0 21 -3 17 -144 -3 -136 -4
-146 -27 -170 -30 -32 -78 -42 -125 -26 -41 13 -49 22 -40 44 5 14 8 14 30 -1
29 -18 79 -20 100 -2 8 6 14 25 14 42 0 24 -3 28 -12 19 -7 -7 -31 -12 -54
-12 -34 0 -47 5 -67 29 -68 81 -25 229 66 231 10 0 31 -7 47 -15z m6498 4 c49
-17 75 -68 70 -136 -4 -48 -10 -61 -37 -85 -40 -35 -104 -39 -144 -7 -52 40
-60 138 -15 194 33 43 72 53 126 34z m242 -7 c0 -11 -13 -23 -35 -31 l-35 -12
0 -100 c0 -99 0 -99 -25 -99 l-25 0 0 125 c0 117 1 125 19 125 11 0 23 -5 26
-10 4 -7 14 -5 28 5 29 20 47 19 47 -3z m180 3 c17 -9 30 -11 30 -5 0 5 9 10
20 10 20 0 20 -5 18 -172 -3 -165 -4 -173 -23 -173 -17 0 -21 8 -25 60 -3 36
-8 55 -13 48 -5 -7 -28 -13 -52 -13 -36 0 -48 5 -68 29 -56 66 -42 180 25 218
31 17 53 16 88 -2z m534 5 c31 -11 52 -44 61 -92 l7 -38 -86 0 c-82 0 -86 -1
-86 -22 0 -30 38 -68 70 -68 14 0 36 7 49 16 17 12 25 14 34 5 20 -20 -30 -51
-84 -51 -58 0 -94 26 -110 80 -32 107 51 206 145 170z m-7273 -89 c16 -46 31
-86 33 -89 3 -2 17 37 32 87 24 80 30 91 51 91 22 0 22 -2 -32 -157 -57 -163
-76 -193 -121 -193 -17 0 -24 6 -24 20 0 11 3 19 8 19 28 -5 45 5 56 32 12 28
9 41 -31 151 -23 66 -43 122 -43 125 0 2 10 3 22 1 17 -2 27 -19 49 -87z
m6909 7 c0 -47 6 -94 13 -108 15 -31 50 -37 83 -16 23 16 24 22 24 111 0 88 1
95 20 95 19 0 20 -7 20 -125 0 -118 -1 -125 -20 -125 -11 0 -20 5 -20 10 0 7
-6 7 -19 0 -34 -18 -96 -12 -117 11 -16 17 -20 40 -22 125 -4 100 -3 104 17
104 20 0 21 -6 21 -82z"/>
<path d="M11474 25306 c-16 -12 -20 -29 -22 -113 -3 -88 -2 -101 18 -126 27
-35 62 -35 89 -1 18 22 21 41 21 111 0 80 -10 119 -34 135 -18 12 -51 9 -72
-6z"/>
<path d="M11744 25306 c-16 -12 -20 -29 -22 -113 -3 -88 -2 -101 18 -126 27
-35 62 -35 89 -1 18 22 21 41 21 111 0 80 -10 119 -34 135 -18 12 -51 9 -72
-6z"/>
<path d="M11992 25318 c-19 -19 -15 -76 6 -87 28 -15 52 5 52 42 0 33 -15 57
-35 57 -6 0 -16 -5 -23 -12z"/>
<path d="M13024 25306 c-16 -12 -20 -29 -22 -113 -3 -88 -2 -101 18 -126 27
-35 62 -35 89 -1 18 22 21 41 21 111 0 80 -10 119 -34 135 -18 12 -51 9 -72
-6z"/>
<path d="M13684 25306 c-16 -12 -20 -29 -22 -113 -3 -88 -2 -101 18 -126 27
-35 62 -35 89 -1 18 22 21 41 21 111 0 80 -10 119 -34 135 -18 12 -51 9 -72
-6z"/>
<path d="M13954 25306 c-16 -12 -20 -29 -22 -113 -3 -88 -2 -101 18 -126 27
-35 62 -35 89 -1 18 22 21 41 21 111 0 80 -10 119 -34 135 -18 12 -51 9 -72
-6z"/>
<path d="M12156 25124 c-29 -28 -13 -94 22 -94 26 0 42 20 42 51 0 27 -22 59
-40 59 -5 0 -16 -7 -24 -16z"/>
<path d="M1660 23850 c-11 -11 -20 -24 -20 -29 0 -5 -3 -16 -6 -25 -5 -14 5
-16 70 -16 74 0 76 1 76 25 0 34 -33 65 -70 65 -17 0 -39 -9 -50 -20z"/>
<path d="M2025 23728 c-56 -32 -40 -98 23 -98 46 0 72 26 72 71 0 39 0 39 -37
39 -21 0 -47 -6 -58 -12z"/>
<path d="M3360 23850 c-11 -11 -20 -24 -20 -29 0 -5 -3 -16 -6 -25 -5 -14 5
-16 70 -16 74 0 76 1 76 25 0 34 -33 65 -70 65 -17 0 -39 -9 -50 -20z"/>
<path d="M3206 19848 c-28 -40 -21 -48 44 -48 64 0 72 9 50 51 -15 28 -74 26
-94 -3z"/>
<path d="M3726 19848 c-24 -34 -21 -123 4 -148 24 -24 48 -25 78 -4 19 13 22
24 22 83 0 39 -5 72 -12 79 -21 21 -75 15 -92 -10z"/>
<path d="M11166 19848 c-28 -40 -21 -48 44 -48 64 0 72 9 50 51 -15 28 -74 26
-94 -3z"/>
<path d="M10402 17863 l3 -78 193 -3 192 -2 0 -35 0 -35 -195 0 -195 0 0 -40
0 -40 120 0 120 0 0 -40 0 -40 -120 0 -120 0 0 -40 0 -40 120 0 120 0 0 -35 0
-34 -117 -3 -118 -3 -3 -37 -3 -38 195 0 196 0 0 -40 0 -40 -195 0 -195 0 0
-40 0 -40 120 0 120 0 0 -40 0 -40 -120 0 -120 0 0 -115 0 -115 395 0 395 0 0
545 0 545 -395 0 -396 0 3 -77z"/>
<path d="M3519 17617 c-57 -21 -97 -54 -126 -105 -24 -39 -28 -59 -28 -118 0
-61 4 -77 30 -120 19 -30 49 -60 79 -79 43 -26 59 -30 121 -30 62 0 78 4 121
30 30 19 60 49 79 79 26 43 30 59 30 121 0 62 -4 78 -30 121 -57 91 -181 137
-276 101z"/>
<path d="M2596 16128 c-28 -40 -21 -48 44 -48 64 0 72 9 50 51 -15 28 -74 26
-94 -3z"/>
<path d="M3272 16138 c-7 -7 -12 -41 -12 -85 0 -61 3 -74 19 -83 58 -30 101 5
101 83 0 67 -20 97 -64 97 -17 0 -37 -5 -44 -12z"/>
<path d="M3536 16128 c-28 -40 -21 -48 44 -48 64 0 72 9 50 51 -15 28 -74 26
-94 -3z"/>
<path d="M3930 16036 c-19 -24 -8 -60 22 -70 38 -13 78 14 78 54 0 29 -2 30
-44 30 -26 0 -48 -6 -56 -14z"/>
<path d="M4776 16128 c-28 -40 -21 -48 44 -48 64 0 72 9 50 51 -15 28 -74 26
-94 -3z"/>
<path d="M10364 16125 c-33 -50 -16 -147 28 -161 56 -18 104 37 95 108 -7 52
-32 78 -73 78 -25 0 -38 -7 -50 -25z"/>
<path d="M11436 16128 c-28 -40 -21 -48 44 -48 64 0 72 9 50 51 -15 28 -74 26
-94 -3z"/>
<path d="M10573 14087 c-122 -95 -221 -175 -220 -179 5 -17 441 -347 451 -341
28 17 431 335 433 341 2 5 -287 234 -420 334 -22 16 -27 13 -244 -155z"/>
<path d="M3516 14197 c-70 -40 -95 -128 -60 -203 22 -47 67 -76 124 -82 89 -8
158 47 168 134 14 128 -120 215 -232 151z"/>
<path d="M3130 13440 l0 -310 75 0 75 0 0 97 0 97 40 -39 c38 -37 40 -43 40
-97 l0 -58 80 0 80 0 0 77 0 78 -77 77 -78 78 78 78 77 77 0 78 0 77 -80 0
-80 0 0 -58 c0 -54 -2 -60 -40 -97 l-40 -39 0 97 0 97 -75 0 -75 0 0 -310z"/>
<path d="M3765 13741 c-33 -14 -74 -62 -86 -100 -6 -22 -9 -109 -7 -223 3
-207 6 -217 78 -265 30 -21 44 -23 171 -23 l139 0 0 195 0 195 -75 0 -75 0 0
-115 0 -115 -40 0 -40 0 0 155 0 155 115 0 115 0 0 75 0 75 -137 -1 c-76 0
-147 -4 -158 -8z"/>
<path d="M10429 12423 c-13 -37 -25 -71 -27 -75 -2 -4 21 -8 52 -8 31 0 56 3
56 6 0 11 -43 128 -50 137 -3 4 -17 -23 -31 -60z"/>
<path d="M3356 12408 c-28 -40 -21 -48 44 -48 64 0 72 9 50 51 -15 28 -74 26
-94 -3z"/>
<path d="M3726 12408 c-24 -34 -21 -123 4 -148 24 -24 48 -25 78 -4 19 13 22
24 22 83 0 39 -5 72 -12 79 -21 21 -75 15 -92 -10z"/>
<path d="M10856 12408 c-28 -40 -21 -48 44 -48 64 0 72 9 50 51 -15 28 -74 26
-94 -3z"/>
<path d="M11100 12316 c-19 -24 -8 -60 22 -70 38 -13 78 14 78 54 0 29 -2 30
-44 30 -26 0 -48 -6 -56 -14z"/>
<path d="M3200 10345 l0 -235 395 0 395 0 0 235 0 235 -395 0 -395 0 0 -235z"/>
<path d="M3533 9950 c-97 -20 -178 -86 -221 -179 -21 -44 -26 -72 -26 -131 -1
-91 25 -152 92 -218 64 -64 120 -87 217 -87 97 0 153 23 217 87 65 65 92 127
92 218 0 90 -30 165 -89 225 -69 69 -187 104 -282 85z m157 -189 c43 -34 66
-93 56 -144 -9 -49 -58 -104 -106 -118 -110 -33 -217 64 -195 177 8 43 68 109
107 117 45 10 103 -4 138 -32z"/>
<path d="M2990 8660 l0 -130 46 0 c87 0 119 42 112 148 -5 84 -33 112 -109
112 l-49 0 0 -130z"/>
<path d="M9930 8725 l0 -65 60 0 c47 0 64 4 80 20 24 24 26 57 4 88 -13 19
-24 22 -80 22 l-64 0 0 -65z"/>
<path d="M3436 8688 c-24 -34 -21 -123 4 -148 24 -24 48 -25 78 -4 19 13 22
24 22 83 0 39 -5 72 -12 79 -21 21 -75 15 -92 -10z"/>
<path d="M3980 8596 c-19 -24 -8 -60 22 -70 38 -13 78 14 78 54 0 29 -2 30
-44 30 -26 0 -48 -6 -56 -14z"/>
<path d="M10396 8688 c-28 -40 -21 -48 44 -48 64 0 72 9 50 51 -15 28 -74 26
-94 -3z"/>
<path d="M11566 8688 c-28 -40 -21 -48 44 -48 64 0 72 9 50 51 -15 28 -74 26
-94 -3z"/>
<path d="M10661 6845 c-282 -64 -491 -324 -491 -610 0 -141 64 -310 158 -414
l49 -55 69 45 c131 86 235 115 387 107 131 -7 250 -51 351 -131 l28 -22 49 55
c177 197 207 499 72 730 -75 127 -212 236 -353 281 -85 27 -234 34 -319 14z
m344 -160 c14 -13 25 -33 25 -45 0 -11 -25 -82 -55 -158 l-56 -137 17 -51 c21
-64 13 -113 -27 -159 -57 -65 -149 -71 -214 -14 -40 36 -60 92 -51 143 9 45
57 101 99 117 30 10 37 23 86 148 55 142 83 181 127 181 14 0 36 -11 49 -25z
m-325 5 c28 -15 40 -61 25 -97 -31 -74 -139 -50 -139 32 0 60 60 94 114 65z
m-217 -252 c33 -39 17 -99 -31 -116 -40 -14 -89 8 -98 44 -21 82 75 136 129
72z m780 0 c33 -39 17 -99 -31 -116 -40 -14 -89 8 -98 44 -21 82 75 136 129
72z"/>
<path d="M3130 6585 l0 -195 235 0 235 0 0 195 0 195 -235 0 -235 0 0 -195z"/>
<path d="M4009 6521 c-31 -32 -35 -50 -17 -84 27 -52 83 -62 123 -22 40 39 32
96 -16 120 -40 21 -57 19 -90 -14z"/>
<path d="M11276 4968 c-24 -34 -21 -123 4 -148 24 -24 48 -25 78 -4 19 13 22
24 22 84 0 58 -3 71 -19 80 -32 17 -69 12 -85 -12z"/>
<path d="M3756 4968 c-28 -40 -21 -48 44 -48 64 0 72 9 50 51 -15 28 -74 26
-94 -3z"/>
<path d="M10512 4978 c-7 -7 -12 -41 -12 -85 0 -61 3 -74 19 -83 58 -30 101 5
101 83 0 67 -20 97 -64 97 -17 0 -37 -5 -44 -12z"/>
<path d="M10776 4968 c-28 -40 -21 -48 44 -48 64 0 72 9 50 51 -15 28 -74 26
-94 -3z"/>
<path d="M11026 4968 c-28 -40 -21 -48 44 -48 64 0 72 9 50 51 -15 28 -74 26
-94 -3z"/>
<path d="M3496 1248 c-28 -40 -21 -48 44 -48 64 0 72 9 50 51 -15 28 -74 26
-94 -3z"/>
<path d="M3906 1248 c-24 -34 -21 -123 4 -148 24 -24 48 -25 78 -4 19 13 22
24 22 83 0 39 -5 72 -12 79 -21 21 -75 15 -92 -10z"/>
<path d="M10394 1245 c-33 -50 -16 -147 28 -161 56 -18 104 37 95 108 -7 52
-32 78 -73 78 -25 0 -38 -7 -50 -25z"/>
<path d="M10826 1248 c-24 -34 -21 -123 4 -148 22 -22 51 -26 81 -10 16 9 19
22 19 83 0 44 -5 78 -12 85 -21 21 -75 15 -92 -10z"/>
<path d="M11356 1248 c-28 -40 -21 -48 44 -48 64 0 72 9 50 51 -15 28 -74 26
-94 -3z"/>
</g>
</svg>
